<?xml version="1.0" standalone="no"?>
<!DOCTYPE svg PUBLIC "-//W3C//DTD SVG 20010904//EN"
 "http://www.w3.org/TR/2001/REC-SVG-20010904/DTD/svg10.dtd">
<svg version="1.0" xmlns="http://www.w3.org/2000/svg"
 width="512.000000pt" height="512.000000pt" viewBox="0 0 512.000000 512.000000"
 preserveAspectRatio="xMidYMid meet">

<g transform="translate(0.000000,512.000000) scale(0.100000,-0.100000)"
fill="#000000" stroke="none">
<path d="M2168 4444 c-56 -30 -78 -122 -43 -181 28 -47 64 -63 142 -63 74 0
122 20 143 61 11 19 18 21 69 16 138 -12 248 -120 267 -259 10 -77 -80 -436
-172 -688 -54 -144 -158 -353 -232 -465 -38 -58 -104 -138 -156 -190 -222
-221 -372 -240 -579 -73 -263 210 -485 657 -617 1242 -42 184 -16 292 87 371
50 38 125 65 183 65 30 0 39 -5 48 -25 20 -43 69 -65 145 -65 78 0 114 16 142
62 35 60 17 143 -40 178 -25 15 -50 20 -108 20 -72 0 -79 -2 -113 -32 -31 -27
-50 -35 -114 -44 -147 -21 -255 -97 -316 -219 -27 -55 -29 -69 -29 -165 0 -88
7 -129 38 -252 98 -386 226 -702 374 -925 74 -111 226 -270 315 -329 38 -26
100 -57 136 -69 l67 -23 5 -638 c5 -590 6 -643 24 -689 36 -98 82 -171 151
-240 118 -118 241 -169 405 -167 156 1 285 55 398 165 67 66 107 128 140 219
l27 73 5 605 5 605 26 55 c37 80 81 125 157 162 64 32 72 33 202 36 l136 4 18
-61 c66 -221 317 -334 526 -235 79 37 145 101 184 179 38 73 47 192 23 276
-47 161 -197 272 -367 271 -175 -1 -321 -110 -367 -274 l-16 -58 -101 0 c-188
0 -291 -31 -385 -116 -55 -50 -113 -153 -130 -232 -7 -35 -11 -241 -11 -610 0
-602 -1 -607 -55 -718 -34 -70 -127 -162 -198 -197 -151 -74 -294 -74 -439 -1
-66 34 -168 135 -201 199 -58 115 -57 105 -57 776 l0 617 39 7 c76 13 199 93
306 200 231 231 409 594 535 1096 70 280 72 346 13 462 -63 126 -206 217 -339
217 -33 0 -46 5 -54 21 -6 11 -26 29 -43 39 -40 25 -158 27 -199 4z m1819
-1554 c123 -54 187 -182 159 -318 -29 -142 -146 -229 -294 -220 -156 9 -265
124 -265 278 0 211 207 345 400 260z"/>
<path d="M3819 2707 c-23 -17 -39 -52 -39 -82 0 -38 50 -85 90 -85 76 0 119
102 65 155 -27 28 -88 34 -116 12z"/>
</g>
</svg>
